<?xml version="1.0" standalone="no"?>
<!DOCTYPE svg PUBLIC "-//W3C//DTD SVG 20010904//EN"
 "http://www.w3.org/TR/2001/REC-SVG-20010904/DTD/svg10.dtd">
<svg version="1.0" xmlns="http://www.w3.org/2000/svg"
 width="512.000000pt" height="512.000000pt" viewBox="0 0 512.000000 512.000000"
 preserveAspectRatio="xMidYMid meet">
<metadata>
Created by potrace 1.11, written by Peter Selinger 2001-2013
</metadata>
<g transform="translate(0.000000,512.000000) scale(0.100000,-0.100000)"
fill="#000000" stroke="none">
<path d="M3943 4025 c-18 -7 -42 -29 -53 -47 -19 -32 -20 -49 -20 -656 0 -684
-2 -665 60 -697 44 -23 655 -22 688 1 53 37 52 24 52 704 l0 630 -34 38 -34
37 -314 2 c-253 2 -319 0 -345 -12z m583 -85 c54 -21 53 -17 54 -413 l0 -368
-25 -24 -24 -25 -250 0 c-265 0 -290 4 -310 47 -7 16 -11 138 -11 371 0 371 2
385 50 409 32 16 475 18 516 3z m-406 -954 c0 -29 -16 -36 -79 -36 -55 0 -85
17 -75 43 5 14 19 17 80 17 71 0 74 -1 74 -24z m228 0 c5 -27 -15 -36 -79 -36
-60 0 -86 16 -75 45 5 13 20 15 78 13 62 -3 73 -6 76 -22z m228 9 c12 -29 -16
-45 -76 -45 -60 0 -88 16 -76 45 4 11 22 15 76 15 54 0 72 -4 76 -15z m-461
-115 c0 -24 -3 -25 -66 -28 -70 -3 -95 10 -83 42 5 14 19 16 78 14 68 -3 71
-4 71 -28z m230 0 c0 -24 -3 -25 -66 -28 -70 -3 -98 11 -85 43 5 13 20 15 78
13 70 -3 73 -4 73 -28z m230 0 c0 -24 -3 -25 -73 -28 -58 -2 -73 0 -78 13 -14
37 3 46 78 43 70 -3 73 -4 73 -28z m-460 -100 c0 -24 -3 -25 -71 -28 -59 -2
-73 0 -78 14 -12 32 13 45 83 42 63 -3 66 -4 66 -28z m230 0 c0 -24 -3 -25
-73 -28 -58 -2 -73 0 -78 13 -13 32 15 46 85 43 63 -3 66 -4 66 -28z m230 0
c0 -24 -3 -25 -73 -28 -75 -3 -92 6 -78 43 5 13 20 15 78 13 70 -3 73 -4 73
-28z"/>
<path d="M1261 4009 c-259 -43 -491 -237 -584 -489 -47 -125 -49 -160 -45
-895 l3 -690 24 -70 c73 -219 213 -381 413 -475 55 -26 118 -43 245 -67 l42
-8 -117 -173 -117 -174 0 -63 c0 -69 15 -99 69 -139 21 -16 42 -21 89 -20 60
0 83 10 667 284 l605 285 580 5 c565 6 582 7 655 29 218 66 387 208 484 406
63 129 68 163 73 448 l5 257 -80 0 -79 0 -6 -232 c-3 -172 -9 -249 -21 -292
-44 -159 -167 -311 -306 -380 -131 -64 -151 -66 -766 -66 l-551 0 -617 -286
c-339 -158 -619 -284 -622 -281 -3 3 78 129 180 280 102 151 186 278 186 281
0 3 -75 6 -167 6 -109 0 -193 6 -238 15 -173 36 -325 155 -404 315 -71 144
-73 165 -69 898 l3 637 28 79 c36 103 68 156 138 230 64 68 137 116 237 155
l67 26 1203 3 1202 2 0 85 0 85 -1177 -1 c-648 -1 -1202 -5 -1232 -10z"/>
<path d="M1385 3004 c-91 -23 -142 -60 -176 -125 l-19 -38 57 -16 c32 -9 64
-18 70 -20 7 -3 19 8 27 24 16 30 69 61 106 61 61 0 118 -70 105 -130 -11 -49
-48 -74 -120 -78 l-65 -4 0 -59 0 -59 33 0 c104 -1 167 -48 167 -124 0 -56
-35 -101 -91 -117 -70 -22 -138 14 -162 85 -5 14 -137 -23 -137 -38 0 -23 46
-90 80 -117 53 -43 155 -65 232 -51 154 29 232 138 204 287 -9 45 -68 112
-108 123 l-30 7 38 25 c133 87 115 277 -33 342 -42 19 -142 31 -178 22z"/>
<path d="M2010 2932 c-36 -31 -87 -75 -113 -98 l-48 -40 39 -45 40 -44 68 65
69 65 3 -312 2 -313 65 0 65 0 0 390 0 390 -62 -1 c-62 0 -64 -1 -128 -57z"/>
<path d="M2630 2909 c-147 -124 -138 -110 -100 -158 19 -23 36 -41 40 -41 4 0
37 27 73 60 36 33 68 60 71 60 3 0 6 -139 6 -310 l0 -310 65 0 65 0 0 390 0
390 -62 0 -63 0 -95 -81z"/>
<path d="M3100 2930 l0 -60 185 0 c102 0 185 -4 185 -9 0 -4 -69 -153 -154
-330 l-155 -321 77 0 77 0 153 328 c145 312 152 330 152 390 l0 62 -260 0
-260 0 0 -60z"/>
</g>
</svg>
